<svg xmlns="http://www.w3.org/2000/svg" width="80" height="80">
    <path fill="#38C695" fill-rule="evenodd" d="M34.687 25.312L52.5 39.062v1.875l-17.813 13.75-2.187-.937v-27.5l2.187-.938zM35 51.249l14.219-11.25L35 28.749v22.5zm45-11.25c0 11.043-3.906 20.469-11.719 28.282C60.469 76.093 51.04 80 40 80c-11.043 0-20.469-3.907-28.281-11.719C3.906 60.468 0 51.042 0 39.999c0-11.039 3.906-20.468 11.719-28.28C19.531 3.906 28.957 0 40 0c11.04 0 20.469 3.906 28.281 11.719C76.094 19.531 80 28.96 80 39.999zm-2.5 0c0-10.207-3.648-19.062-10.938-26.562C59.062 6.147 50.207 2.5 40 2.5c-10.21 0-19.063 3.647-26.563 10.937C6.145 20.937 2.5 29.792 2.5 39.999c0 10.211 3.645 19.063 10.937 26.563C20.937 73.854 29.79 77.5 40 77.5c10.207 0 19.062-3.646 26.562-10.938 7.29-7.5 10.938-16.352 10.938-26.563z"/>
</svg>
