<svg xmlns="http://www.w3.org/2000/svg" width="45" height="41">
    <path fill="#FEB960" fill-rule="evenodd" d="M28.534 40.016v-30h15.932v30H28.534zm14.995-29.062H29.471v2.812h14.058v-2.812zm0 3.75H29.471v18.75h14.058v-18.75zm0 19.687H29.471v4.688h14.058v-4.688zm-7.029.937c.39 0 .722.138.996.411.273.274.41.606.41.996 0 .391-.137.723-.41.996-.274.274-.606.41-.996.41-.391 0-.723-.136-.996-.41-.273-.273-.41-.605-.41-.996 0-.39.137-.722.41-.996.273-.273.605-.411.996-.411zm0 1.876c.312 0 .469-.156.469-.469 0-.312-.157-.469-.469-.469-.313 0-.469.157-.469.469 0 .313.156.469.469.469zm1.874-24.376h-3.748v-.936h3.748v.936zM.755.016h27.491v40H.755v-40zm1.249 38.751h24.992v-6.251H2.004v6.251zm0-7.5h24.992V6.266H2.004v25.001zm0-26.251h24.992v-3.75H2.004v3.75zm9.997-2.5h4.998v1.25h-4.998v-1.25zm2.499 35c-.521 0-.964-.182-1.328-.547-.364-.363-.546-.807-.546-1.328 0-.52.182-.963.546-1.328.364-.364.807-.547 1.328-.547.52 0 .963.183 1.328.547.364.365.547.808.547 1.328 0 .521-.183.965-.547 1.328-.365.365-.808.547-1.328.547zm0-2.499c-.417 0-.625.208-.625.624 0 .418.208.625.625.625.416 0 .625-.207.625-.625 0-.416-.209-.624-.625-.624z"/>
</svg>
