<svg xmlns="http://www.w3.org/2000/svg" width="55" height="43">
    <path fill="#B27CF5" fill-rule="evenodd" d="M46.406 42.999H0V6.893h46.406v36.106zM1.719 8.612v22.889l11.172-11.283 12.246 13.969 8.486-5.157 11.064 9.563V8.612H1.719zm42.968 32.667v-.429l-11.279-9.672-8.701 5.158-11.816-13.539L1.719 33.865v7.414h42.968zM7.734.016H55v36.106h-7.734v-1.72h6.015V1.735H9.453v4.299H7.734V.016zm21.485 18.913c0-1.433.5-2.65 1.504-3.654 1.002-1.003 2.218-1.504 3.652-1.504 1.432 0 2.649.501 3.652 1.504 1.002 1.004 1.504 2.221 1.504 3.654 0 1.433-.502 2.651-1.504 3.653-1.003 1.004-2.22 1.504-3.652 1.504-1.434 0-2.65-.5-3.652-1.504-1.004-1.002-1.504-2.22-1.504-3.653zm1.718 0c0 1.003.323 1.826.967 2.471.645.645 1.467.967 2.471.967 1.002 0 1.826-.322 2.471-.967.644-.645.966-1.468.966-2.471 0-1.003-.322-1.827-.966-2.472-.645-.645-1.469-.967-2.471-.967-1.004 0-1.826.322-2.471.967-.644.645-.967 1.469-.967 2.472z"/>
</svg>
